<svg width="1920" height="763" viewBox="0 0 1920 763" fill="none" xmlns="http://www.w3.org/2000/svg">
<g clip-path="url(#clip0_465_343)">
<path d="M2019.39 619.379V680.5H1976.28V727.23H1949.34V688.261L1900.82 639.712V536.63H1838.52V772.707H1808.58V640.278H1755.29L1674.45 721.167V793.688H1655.3V515.489H1472.04V612.143H1455.27V832.656H1423.24V736.487L1378.03 691.253H1349.87V770.363H1336.66V582.835H1194.37V662.188H1170.21V583.401L1141.44 554.619H1071.95L1040.36 573.982V475.428H959.474V781.965H920.609V610.041H851.402L746.441 715.063V809.21H721.594V50.6919C721.594 50.6919 720.018 -72.2379 721.594 64.6787C723.129 201.595 623.056 229.609 562.374 255.278C501.732 280.948 527.185 436.54 527.185 436.54H483.633V573.457H461.857V859.781H420.244V734.911L361.541 676.175H324.978V778.892H291.163V830.635L279.123 842.682V748.534L250.358 719.752V545.483H177.273V715.103H133.72V800.681H91.7439V536.145L54.4135 498.793H-35.8017L-84 528.344V1306.79H1336.62V1219.92H2128.96V619.298H2019.35L2019.39 619.379Z" fill="#CDDAE0"/>
<path d="M2129 910.675H2028.97V989.502H1993.29V1200.27H1981.13V929.553L1990.79 914.475V870.413L2002.71 851.858H1958.83L1942.55 323.919V321.695V322.827L1942.47 321.897V323.797L1926.19 851.737H1882.31L1894.23 870.291V914.354L1903.89 929.432V1053.57H1866.56V885.087H1816.3L1774.64 926.764V973.454H1705.32V1128.16H1676.07V1001.83H1654.85V921.792H1587.18V884.844C1487.51 899.639 1461.66 983.681 1461.66 983.681H1362.39L1280.7 901.943H1260.54C1406.83 432.296 1779.21 336.127 1779.21 336.127V314.54H1739.78C1747.94 310.296 1757.23 305.364 1757.92 301.241C1759.29 293.277 1751.7 292.671 1749.55 286.082C1747.41 279.452 1741.96 277.148 1736.14 272.257C1730.32 267.406 1726.4 262.717 1730.49 258.634C1734.57 254.551 1732.42 245.011 1728.55 240.524C1724.67 236.037 1734.77 234.703 1743.9 231.752C1753.03 228.841 1772.1 223.303 1776.18 211.054C1780.26 198.806 1790 198.887 1803.61 193.47C1817.23 188.013 1830.84 178.877 1845.79 175.764C1860.78 172.652 1864.25 158.261 1871.44 156.32C1878.64 154.38 1883.48 164.89 1889.71 162.95C1895.93 161.009 1876.29 154.784 1883.08 154.178C1889.87 153.612 1906.79 146.578 1910.67 143.667C1914.55 140.757 1913.38 138.412 1906.79 137.644C1900.17 136.876 1880.37 145.042 1860.9 147.75C1841.47 150.459 1824.74 164.284 1819.29 164.688C1813.83 165.092 1797.31 169.175 1796.34 167.396C1795.37 165.658 1795.17 164.85 1791.85 163.88C1788.54 162.909 1788.74 153.976 1781.55 150.257C1774.36 146.578 1759.57 150.257 1752.18 149.286C1744.79 148.316 1734.48 151.995 1737.19 160.363C1739.9 168.73 1749.84 169.701 1753.51 174.188C1757.19 178.675 1752.34 177.3 1739.7 172.813C1727.05 168.326 1697.32 167.558 1689.52 167.558C1681.72 167.558 1692.23 181.747 1685.44 182.919C1678.65 184.092 1656.47 173.015 1650.05 173.379C1643.62 173.783 1658.41 184.86 1654.33 189.145C1650.25 193.43 1615.26 204.91 1606.29 210.529C1597.36 216.188 1601.81 226.294 1602.78 229.973C1603.75 233.652 1616.39 223.343 1622.98 223.95C1629.6 224.516 1617.52 231.711 1617.52 231.711C1615.38 237.734 1634.45 228.599 1634.25 218.978C1634.05 209.357 1650.21 204.667 1663.78 206.446C1677.4 208.184 1692.35 202.929 1697.8 202.929C1703.26 202.929 1707.34 210.893 1698.77 215.784C1690.21 220.635 1693.72 230.943 1687.3 236.603C1680.87 242.262 1684.71 250.468 1688.35 258.917C1691.98 267.365 1699.38 269.467 1690.81 267.527C1682.25 265.587 1666.13 269.104 1659.5 276.461C1652.88 283.858 1644.35 289.113 1629 292.994C1613.65 296.875 1616.76 300.756 1617.32 305.243C1617.69 308.153 1617.08 311.387 1616.23 314.459H1567.71L1568.11 337.622H1652.55C1158.29 569.091 1067.95 1096.71 1067.95 1096.71H1174.65V1138.3H1000.24L835.403 973.373H674.971V923.489L684.627 916.739V897.052L696.545 888.765H652.67L636.388 652.931V651.92V652.405L636.307 651.961V652.809L620.026 888.644H576.151L588.069 896.931V916.617L597.725 923.368V1065.94C580.797 960.761 492.117 879.629 383.519 874.415L372.368 723.269L361.218 874.415C240.298 880.236 144.063 980.164 144.063 1102.57H131.498V1137.45H38.7377V1003.81H33.93V978.224C36.1521 974.303 37.4045 969.775 37.4045 964.924C37.4045 951.584 27.7891 940.508 15.1436 938.163L10.2147 871.181L5.2858 938.163C-7.35968 940.508 -16.9751 951.584 -16.9751 964.924C-16.9751 969.735 -15.7227 974.262 -13.5006 978.224V1003.81H-18.3083V1137.45H-39.5996V1689.2H1903.68V1970.76H1942.31V1970.92H1980.97V1689.2H2103.39V1405.63H2128.8V910.594L2129 910.675ZM1654.13 297.724C1659.78 293.075 1671.82 295.015 1682.33 292.873C1692.83 290.73 1710.12 285.111 1715.17 286.85C1720.22 288.588 1725.07 293.277 1716.47 296.188C1707.82 299.098 1710.12 308.072 1702.93 310.013C1700.47 310.7 1698.49 312.479 1696.95 314.581H1671.06C1670.77 313.57 1670.61 312.438 1670.65 311.185C1671.06 303.787 1664.63 306.132 1658.01 306.698C1651.38 307.264 1648.47 302.413 1654.13 297.764V297.724Z" fill="#87A0AA"/>
<path d="M344.33 456.55C342.835 453.437 337.219 441.068 335.523 434.842C333.826 428.617 334.593 424.09 334.23 420.007C333.866 415.924 337.341 414.145 334.23 411.396C331.119 408.647 331.119 408.85 330.432 404.686C329.786 400.522 327.2 399.188 324.13 397.45C321.059 395.712 319.039 395.388 317.059 389.891C315.08 384.393 311.646 388.799 309.585 386.293C307.525 383.787 305.02 384.11 304.091 386.859C303.161 389.608 303.606 391.023 301.586 388.84C299.606 386.657 296.697 388.84 296.697 393.003C296.697 397.167 297.909 398.744 297.909 398.744C297.909 398.744 290.637 392.761 290.395 392.154C290.152 391.589 290.799 389.648 290.233 387.142C289.668 384.636 292.819 380.229 292.819 380.229C292.819 380.229 295.324 375.904 295.566 375.338C295.808 374.772 298.556 369.759 297.829 365.919C297.061 362.079 296.011 361.351 294.92 357.349C293.829 353.347 290.839 353.954 289.264 350.922C287.688 347.93 284.456 349.83 279.931 348.416C275.446 347.001 274.032 347.567 271.689 349.062C269.346 350.558 267.205 350.639 265.871 354.56C264.538 358.481 258.478 364.666 256.135 366.081C253.751 367.536 256.337 369.315 256.377 374.368C256.458 379.421 260.498 377.319 260.377 380.351C260.256 383.423 263.326 385.484 265.306 386.576C267.285 387.708 270.679 389.527 269.225 391.386C267.77 393.246 264.538 392.154 262.437 387.506C260.337 382.897 254.196 381.119 251.974 376.753C249.711 372.387 237.025 360.583 237.025 354.924C237.025 349.264 216.259 322.463 215.007 319.593C213.754 316.723 215.492 313.853 216.582 310.7C217.673 307.547 215.734 306.374 215.855 303.302C215.976 300.23 215.29 298.532 212.946 299.098C210.603 299.664 212.098 304.555 211.047 306.334C209.997 308.072 207.977 306.698 204.987 303.828C201.998 300.958 199.574 295.581 197.271 297.036C194.968 298.492 200.624 305.162 199.574 305.04C198.523 304.919 190.403 296.753 189.11 298.007C187.817 299.26 194.927 307.425 194.927 307.425C194.927 307.425 184.342 301.038 183.211 301.928C182.08 302.817 188.382 308.436 188.382 308.436C188.382 308.436 179.454 305 179.818 307.425C180.181 309.851 191.655 313.853 191.655 313.853C194.281 317.168 201.876 319.189 202.886 321.21C203.896 323.191 211.694 335.844 213.714 344.333C215.694 352.822 228.097 365.717 228.339 368.951C228.581 372.185 241.954 392.68 241.954 392.68L236.702 391.184C231.45 389.689 222.602 386.455 218.36 383.585C214.118 380.714 203.008 382.21 203.008 382.21L193.473 376.146C193.473 376.146 191.817 370.487 193.069 368.991C194.321 367.496 194.806 361.755 194.806 361.755C194.806 361.755 198.281 362.685 199.614 358.158C200.947 353.671 198.281 350.841 198.281 350.841C198.281 350.841 200.705 337.097 197.109 335.116C193.513 333.135 190.605 329.901 187.857 327.557C185.11 325.172 180.141 327.072 176.868 326.425C173.636 325.818 173.232 327.678 168.869 332.286C164.506 336.895 165.798 345.788 165.031 345.262C164.263 344.777 160.021 347.324 160.708 353.186C161.354 359.007 167.455 358.077 167.455 358.077C167.455 360.745 169.879 366 169.879 366L168.869 373.317C168.869 373.317 163.536 376.632 161.718 371.983C159.9 367.334 148.426 359.653 147.578 353.832C146.729 348.011 132.589 329.699 132.589 329.699C130.084 318.865 115.338 287.577 115.338 287.577C115.338 287.577 115.944 284.95 116.59 278.32C117.196 271.691 124.589 269.952 126.327 265.708C128.064 261.463 118.206 267.203 113.116 269.103C107.985 270.963 103.864 264.091 102.773 260.008C101.642 255.885 98.4097 247.153 96.5513 246.668C94.6928 246.183 97.8037 260.897 97.8037 260.897C97.8037 260.897 90.0871 246.668 87.0166 246.668C83.9462 246.668 94.1676 264.778 94.1676 264.778C94.1676 264.778 82.6937 250.549 79.8253 251.276C76.9568 252.044 89.8043 266.88 89.8043 266.88C89.8043 266.88 81.8049 259.765 76.7144 259.159C71.5835 258.553 85.5622 266.152 90.5719 272.782C95.5816 279.412 98.4501 284.909 98.4501 284.909C98.4501 284.909 104.066 298.815 105.884 308.476C107.702 318.138 111.702 328.446 115.54 335.763C119.378 343.08 132.75 366.687 132.75 366.687C132.75 366.687 131.013 380.431 137.477 383.302C143.982 386.172 146.81 396.197 146.81 396.682C146.81 397.167 148.466 410.345 152.305 416.651C156.143 422.958 161.435 441.472 161.799 449.961C162.122 458.45 160.708 470.699 157.961 485.17C155.213 499.642 160.223 535.62 155.698 550.819C151.214 566.059 156.183 586.756 153.436 594.518C150.688 602.239 146.931 630.455 146.931 630.455H173.636C173.636 630.455 175.373 594.235 176.383 586.918C177.393 579.601 177.393 560.602 177.393 560.602C177.393 560.602 179.737 553.608 181.716 540.632C183.696 527.656 189.029 499.683 189.029 499.683C189.029 499.683 199.331 519.935 199.452 526.565C199.574 533.194 209.189 538.934 208.947 547.019C208.704 555.145 214.199 570.506 217.431 579.237C220.663 587.969 217.633 588.05 219.451 598.722C221.269 609.394 220.299 631.667 220.299 631.667H247.731C247.731 631.667 248.055 624.836 246.883 613.194C245.711 601.551 253.186 578.591 252.701 571.759C252.216 564.927 257.185 555.953 258.034 552.598C258.882 549.283 271.002 557.247 274.679 556.761C278.355 556.276 292.415 561.491 292.011 563.755C291.647 566.019 292.778 592.092 295.122 602.319C297.505 612.547 290.112 624.432 290.112 624.432H313.06C313.06 624.432 313.544 621.925 312.292 616.185C311.04 610.445 313.06 595.73 312.534 589.95C312.05 584.209 311.767 568.242 313.019 557.732C314.272 547.262 312.009 516.782 310.757 507.808C309.504 498.834 309.666 494.993 307 485.655C304.333 476.317 295.889 457.116 298.152 454.731C300.414 452.346 298.031 443.493 300.253 437.995C302.515 432.498 302.353 428.132 302.353 428.132C302.353 428.132 305.343 427.526 309.222 427.647C313.1 427.768 314.231 429.385 314.231 434.034C314.231 438.683 314.837 440.138 319.483 445.636C324.089 451.133 323.362 449.112 324.614 458.127C325.867 467.101 328.614 468.111 331.482 469.607C334.351 471.103 337.098 469.122 341.34 468.718C345.582 468.313 341.219 463.099 345.098 461.967C348.976 460.835 345.704 459.582 344.209 456.469L344.33 456.55ZM259.569 453.437C259.569 453.437 249.267 465.928 248.741 474.256C248.257 482.583 243.247 493.659 241.025 502.634C238.762 511.608 239.772 525.352 239.772 525.352L233.955 542.815C233.955 542.815 228.299 509.344 227.773 501.38C227.248 493.417 214.481 454.205 214.481 454.205C214.481 454.205 217.148 445.11 214.481 440.866C211.815 436.621 211.936 429.506 213.31 425.989C214.683 422.513 214.481 414.509 214.481 414.509C214.481 414.509 223.41 411.275 225.794 410.143C228.177 409.011 239.288 409.779 241.995 410.143C244.742 410.507 248.499 410.264 248.499 410.264C248.499 410.264 253.59 426.677 254.559 428.981C255.569 431.325 259.569 443.129 259.569 447.131V453.437Z" fill="#87A0AA"/>
<path d="M126.286 624.229V1323.41H167.616V659.439H284.981V1323.41H326.351V624.229H126.286Z" fill="#87A0AA"/>
</g>
<defs>
<clipPath id="clip0_465_343">
<rect width="2213" height="1971" fill="white" transform="translate(-84)"/>
</clipPath>
</defs>
</svg>
