<svg width="388" height="690" viewBox="0 0 388 690" fill="none" xmlns="http://www.w3.org/2000/svg">
<g clip-path="url(#clip0_465_224)">
<path d="M80.8813 146.912H307.119C351.788 146.912 388 184.627 388 231.15V605.762C388 652.286 351.788 690 307.119 690H80.8813C36.2124 690 0 652.286 0 605.762V231.15C0 184.627 36.2124 146.912 80.8813 146.912Z" fill="#CAE9FF"/>
<path d="M302.226 690H256.748V484.15H302.226V690Z" fill="#62B6CB"/>
<path d="M264.808 490.762H272.003V595.7H264.808V490.762ZM276.897 490.762H284.092V595.7H276.897V490.762Z" fill="#CAE9FF"/>
<path d="M336.19 684.537C366.413 672.75 388 643.425 388 608.925V501.687H357.778V463.45H287.834V647.737H336.19V684.537Z" fill="#62B6CB"/>
<path d="M380.229 526.7H295.605V533.025H380.229V526.7Z" fill="#CAE9FF"/>
<path d="M380.229 540.212H295.605V546.537H380.229V540.212Z" fill="#CAE9FF"/>
<path d="M380.229 513.188H295.605V519.225H380.229V513.188Z" fill="#CAE9FF"/>
<path d="M349.189 469.2H334.751V483.621H349.189V469.2Z" fill="#CAE9FF"/>
<path d="M329.615 469.2H315.178V483.621H329.615V469.2Z" fill="#CAE9FF"/>
<path d="M310.043 469.2H295.605V483.621H310.043V469.2Z" fill="#CAE9FF"/>
<path d="M349.189 488.462H334.751V502.883H349.189V488.462Z" fill="#CAE9FF"/>
<path d="M329.615 488.462H315.178V502.883H329.615V488.462Z" fill="#CAE9FF"/>
<path d="M310.043 488.462H295.605V502.883H310.043V488.462Z" fill="#CAE9FF"/>
<path d="M349.189 469.2H334.751V483.621H349.189V469.2Z" fill="#CAE9FF"/>
<path d="M329.615 469.2H315.178V483.621H329.615V469.2Z" fill="#CAE9FF"/>
<path d="M310.043 469.2H295.605V483.621H310.043V469.2Z" fill="#CAE9FF"/>
<path d="M84.0479 525.55H138.161V664.413H84.0479V525.55Z" fill="#62B6CB"/>
<path d="M114.317 532.163H99.8789V546.584H114.317V532.163Z" fill="#CAE9FF"/>
<path d="M133.889 532.163H119.451V546.584H133.889V532.163Z" fill="#CAE9FF"/>
<path d="M51.8101 684.537C21.5875 672.75 0 643.425 0 608.925V501.687H30.2225V463.45H100.166V647.737H51.8101V684.537Z" fill="#62B6CB"/>
<path d="M7.77148 526.7H92.3946V533.025H7.77148V526.7Z" fill="#CAE9FF"/>
<path d="M7.77148 540.212H92.3946V546.537H7.77148V540.212Z" fill="#CAE9FF"/>
<path d="M7.77148 553.725H92.3946V560.05H7.77148V553.725Z" fill="#CAE9FF"/>
<path d="M7.77148 567.238H92.3946V573.563H7.77148V567.238Z" fill="#CAE9FF"/>
<path d="M7.77148 513.188H92.3946V519.225H7.77148V513.188Z" fill="#CAE9FF"/>
<path d="M53.2952 469.2H38.8574V483.621H53.2952V469.2Z" fill="#CAE9FF"/>
<path d="M72.8674 469.2H58.4297V483.621H72.8674V469.2Z" fill="#CAE9FF"/>
<path d="M92.4407 469.2H78.0029V483.621H92.4407V469.2Z" fill="#CAE9FF"/>
<path d="M53.2952 488.462H38.8574V502.883H53.2952V488.462Z" fill="#CAE9FF"/>
<path d="M72.8674 488.462H58.4297V502.883H72.8674V488.462Z" fill="#CAE9FF"/>
<path d="M92.4407 488.462H78.0029V502.883H92.4407V488.462Z" fill="#CAE9FF"/>
<path d="M54.4007 669.013C62.8259 669.013 69.6559 667.468 69.6559 665.563C69.6559 663.657 62.8259 662.113 54.4007 662.113C45.9755 662.113 39.1455 663.657 39.1455 665.563C39.1455 667.468 45.9755 669.013 54.4007 669.013Z" fill="#4A4E69"/>
<path d="M59.8722 637.1H47.7803V666.54H59.8722V637.1Z" fill="#A67056"/>
<path d="M53.825 644C49.5075 645.725 44.6143 646.875 39.4333 646.875C18.9971 646.875 2.30273 630.2 2.30273 609.787C2.30273 593.975 12.3769 580.75 26.1929 575.287C25.3294 572.987 25.0416 570.4 25.0416 567.812C25.0416 556.887 31.9496 547.687 41.4481 543.95C39.4333 539.925 38.282 534.75 38.282 529C38.282 516.637 44.6143 506.575 52.3858 506.575H53.825V644Z" fill="#115E58"/>
<path d="M53.8252 644C58.1427 645.725 63.0359 646.875 68.2169 646.875C88.6531 646.875 105.06 630.2 105.06 609.787C105.06 593.975 95.2733 580.75 81.4572 575.287C82.0329 572.987 82.6086 570.4 82.6086 567.812C82.6086 556.887 75.7006 547.687 65.9142 543.95C68.2169 539.925 69.3682 534.75 69.3682 529C69.3682 516.637 63.0359 506.575 55.2644 506.575H53.8252V644Z" fill="#217E76"/>
<path d="M82.0328 655.5C85.3711 655.5 88.0773 654.856 88.0773 654.063C88.0773 653.269 85.3711 652.625 82.0328 652.625C78.6945 652.625 75.9883 653.269 75.9883 654.063C75.9883 654.856 78.6945 655.5 82.0328 655.5Z" fill="#4A4E69"/>
<path d="M84.0964 642.562H79.1543V654.594H84.0964V642.562Z" fill="#A67056"/>
<path d="M81.7453 645.15C80.0183 646.012 78.0034 646.3 75.9886 646.3C67.6414 646.3 60.7334 639.687 60.7334 631.35C60.7334 624.737 64.7631 619.275 70.5197 617.262C70.2319 616.112 69.9441 615.25 69.9441 614.1C69.9441 609.787 72.8224 605.762 76.8521 604.325C75.9886 602.6 75.4129 600.587 75.4129 598.287C75.4129 593.112 78.0034 589.087 81.1696 589.087H81.7453V645.15Z" fill="#115E58"/>
<path d="M81.7451 645.15C83.4721 646.012 85.487 646.3 87.5018 646.3C95.849 646.3 102.757 639.687 102.757 631.35C102.757 624.737 98.7273 619.275 92.9706 617.262C93.2585 616.112 93.5463 615.25 93.5463 614.1C93.5463 609.787 90.668 605.762 86.6383 604.325C87.5018 602.6 88.0775 600.587 88.0775 598.287C88.0775 593.112 85.487 589.087 82.3208 589.087H81.7451V645.15Z" fill="#217E76"/>
<path d="M344.825 652.337C351.502 652.337 356.914 651.05 356.914 649.462C356.914 647.875 351.502 646.587 344.825 646.587C338.149 646.587 332.736 647.875 332.736 649.462C332.736 651.05 338.149 652.337 344.825 652.337Z" fill="#4A4E69"/>
<path d="M349.3 626.75H339.644V650.262H349.3V626.75Z" fill="#A67056"/>
<path d="M344.537 632.212C341.083 633.65 337.054 634.512 333.024 634.512C316.617 634.512 303.377 621.287 303.377 604.9C303.377 592.25 311.436 581.612 322.374 577.3C321.798 575.575 321.51 573.562 321.51 571.55C321.51 562.637 326.979 555.162 334.751 552.287C333.024 549.125 332.16 545.1 332.16 540.5C332.16 530.437 337.054 522.387 343.386 522.387H344.537V632.212Z" fill="#115E58"/>
<path d="M344.537 632.212C347.991 633.65 352.021 634.512 356.05 634.512C372.457 634.512 385.697 621.287 385.697 604.9C385.697 592.25 377.638 581.612 366.7 577.3C367.276 575.575 367.564 573.562 367.564 571.55C367.564 562.637 362.095 555.162 354.323 552.287C356.05 549.125 356.914 545.1 356.914 540.5C356.914 530.437 352.021 522.387 345.688 522.387H344.537V632.212Z" fill="#217E76"/>
<path d="M309.997 644.288C313.018 644.288 315.466 643.644 315.466 642.85C315.466 642.056 313.018 641.413 309.997 641.413C306.977 641.413 304.528 642.056 304.528 642.85C304.528 643.644 306.977 644.288 309.997 644.288Z" fill="#4A4E69"/>
<path d="M312.179 632.5H307.694V643.422H312.179V632.5Z" fill="#A67056"/>
<path d="M309.997 635.088C308.27 635.663 306.543 635.95 304.528 635.95C297.044 635.95 290.712 629.913 290.712 622.438C290.712 616.4 294.454 611.513 299.635 609.5C299.347 608.638 299.347 607.775 299.347 606.625C299.347 602.6 301.65 599.15 305.391 598C304.528 596.275 303.952 594.55 303.952 592.25C303.952 587.65 306.543 583.913 309.421 583.913H309.997V635.088Z" fill="#115E58"/>
<path d="M309.997 635.088C311.436 635.663 313.451 635.95 315.178 635.95C322.662 635.95 328.994 629.913 328.994 622.438C328.994 616.4 325.252 611.513 320.071 609.5C320.359 608.638 320.647 607.775 320.647 606.625C320.647 602.6 318.056 599.15 314.315 598C315.178 596.275 315.754 594.55 315.754 592.25C315.754 587.65 313.451 583.913 310.573 583.913H309.997V635.088Z" fill="#217E76"/>
<path d="M0 238.625V227.7C0 216.775 2.30267 206.425 6.33235 196.65C7.19585 196.938 8.34718 197.225 9.49852 197.513C10.362 195.788 11.5134 194.35 12.6647 192.913C21.0119 183.713 35.1157 183.138 44.0386 191.475C49.5074 196.363 51.8101 203.263 51.2344 209.875C58.7181 207.575 67.3531 209.3 73.6855 215.05C80.5935 221.088 82.8962 230.288 80.5935 238.625H0Z" fill="white"/>
<path d="M388 312.8V382.95H317.193C311.724 368.575 314.602 351.9 325.54 339.825C336.765 327.175 354.035 323.15 369.291 327.75C370.442 325.45 371.881 323.438 373.608 321.425C377.638 317.113 382.531 313.95 388 312.8Z" fill="white"/>
<path d="M209.831 301.875C207.528 295.262 208.68 287.5 213.861 282.037C219.042 276.287 227.101 274.275 234.009 276.575C234.585 275.425 235.448 274.275 236.024 273.412C241.205 267.95 250.128 267.375 255.597 272.55C259.051 275.712 260.49 280.025 259.914 284.05C264.807 282.612 270.276 283.762 274.018 287.212C278.336 291.237 279.775 296.987 278.336 301.875H209.831Z" fill="white"/>
<path d="M96.1367 422.625C93.834 416.588 94.9854 409.688 99.5907 404.513C104.196 399.338 111.392 397.613 117.724 399.625C118.3 398.763 118.876 397.9 119.739 397.038C124.057 391.863 132.116 391.575 137.009 396.175C139.887 398.763 141.327 402.788 141.039 406.525C145.356 405.088 149.962 405.95 153.703 409.4C157.445 412.85 158.597 418.025 157.445 422.625H96.1367Z" fill="white"/>
<path d="M0 355.35V334.938C1.15134 335.225 2.30267 335.225 3.45401 335.8C3.74184 334.938 4.31751 334.075 4.89318 333.5C8.92285 329.188 15.543 328.9 19.8605 332.638C22.451 334.938 23.6024 338.388 23.3145 341.55C27.0564 340.4 31.0861 341.263 34.2522 343.85C37.4184 347.013 38.5697 351.325 37.4184 355.35H0Z" fill="white"/>
<path d="M299.059 213.038C297.332 207.863 298.196 202.113 302.225 197.8C306.255 193.2 312.299 191.763 317.768 193.488C318.056 192.625 318.632 191.763 319.207 191.188C323.237 186.875 329.857 186.588 334.175 190.613C336.765 192.913 337.917 196.075 337.629 199.238C341.371 198.088 345.4 198.95 348.567 201.825C351.733 204.7 352.884 209.013 351.733 213.038H299.059Z" fill="white"/>
<path d="M377.062 649.463C362.958 673.613 336.765 690 307.118 690H80.8811C51.2342 690 25.0414 673.613 10.9375 649.463C55.8396 635.088 121.178 626.175 194 626.175C266.822 626.175 332.16 635.088 377.062 649.463Z" fill="#9A8C98"/>
<path d="M333.888 685.4C325.541 688.275 316.33 690 307.119 690H80.882C71.6714 690 62.4607 688.275 54.1135 685.4C50.3717 679.075 46.9177 672.175 44.3271 664.7C80.882 646.012 134.419 634.225 194.001 634.225C253.582 634.225 307.119 646.012 343.674 664.7C341.084 672.175 337.63 679.075 333.888 685.4Z" fill="#877B85"/>
<path d="M184.214 123.337L171.837 122.475L170.686 120.462C168.959 118.45 167.808 115.575 166.944 113.275C164.929 107.237 164.354 100.912 164.929 94.875C165.505 89.4125 166.944 85.3875 169.247 80.5C170.398 78.4875 171.55 76.7625 172.413 74.75C173.564 72.1625 174.428 69.2875 175.004 66.4125C175.867 62.3875 176.731 58.3625 177.018 54.3375C177.306 52.0375 177.306 50.025 177.306 47.725V43.4125C177.594 37.375 182.199 25.5875 184.79 19.8375L193.425 0V21.5625C193.425 22.425 194.288 24.4375 194.576 25.3C195.728 27.8875 196.591 30.1875 197.455 32.775C198.894 36.225 200.333 40.25 200.333 43.9875V54.9125C200.909 58.9375 201.772 62.9625 202.636 66.9875C203.211 69.8625 204.075 72.7375 205.226 75.325C206.09 77.3375 207.241 79.35 208.392 81.075C210.695 85.9625 212.134 89.9875 212.71 95.45C213.285 101.487 212.71 107.812 210.695 113.85C209.831 116.15 208.68 119.025 206.953 121.325L205.802 123.05L184.214 124.775V123.337Z" fill="#FF7B00"/>
<path d="M174.14 117.875C174.14 117.875 167.808 108.963 169.535 95.45C170.974 81.65 176.155 82.225 179.321 67.5625C182.775 52.6125 181.624 50.025 181.912 43.4125C181.912 37.0875 188.82 21.5625 188.82 21.5625C188.82 25.0125 195.44 37.0875 195.728 44.275C196.015 50.6 194.864 53.1875 198.318 68.1375C201.484 82.8 206.665 82.5125 208.104 96.025C209.831 109.537 203.499 118.737 203.499 118.737L188.82 119.887V119.312L174.14 117.875Z" fill="#FFF200"/>
<path d="M187.092 115C187.092 115 181.336 98.325 183.351 89.7C185.365 81.075 188.532 66.125 188.532 66.125C188.532 66.125 194 89.9875 193.713 93.15C193.137 96.3125 187.092 115 187.092 115Z" fill="#FFA200"/>
<path d="M188.243 67.85L188.531 66.9875C188.819 71.3 190.258 90.2751 190.258 93.1501C189.97 95.4501 188.819 105.513 188.243 111.263L187.668 112.988C187.092 108.675 185.941 96.6001 186.516 89.7001C187.092 82.8 187.955 72.1625 188.243 67.85Z" fill="#FF7B00"/>
<path d="M189.107 23C190.259 27.3125 195.728 37.6625 195.728 44.275C196.015 50.6 194.864 53.1875 198.318 68.1375C201.484 82.8 206.665 82.5125 208.104 96.025C209.544 107.237 205.226 115.575 203.787 117.875C203.211 118.162 202.923 118.45 202.348 118.737L196.015 119.312C201.196 105.8 200.333 94.3 196.591 85.1C192.849 76.1875 190.547 60.375 191.41 51.175C191.986 43.4125 189.683 27.6 189.107 23Z" fill="#FF7B00"/>
<path d="M192.562 32.4875C194.289 36.5125 195.728 40.825 195.728 44.2751C196.016 50.6 194.864 53.1875 198.318 68.1376C201.484 82.8001 206.665 82.5126 208.105 96.0251C209.256 106.375 205.802 114.138 204.075 117.3L198.318 117.588C203.499 104.363 202.348 92.5751 198.606 83.6626C194.864 74.7501 192.562 58.9376 193.425 49.7376C193.713 45.425 193.137 38.525 192.562 32.4875Z" fill="#FFA200"/>
<path d="M174.14 117.875C174.14 117.875 167.808 108.963 169.535 95.4501C170.974 81.6501 176.155 82.2251 179.321 67.5626C182.775 52.6126 181.624 50.0251 181.912 43.4125C181.912 38.8125 185.941 28.4625 187.956 23.8625C186.517 27.6 184.79 35.3625 186.229 48.3001C188.244 66.7001 177.306 81.3626 177.306 98.0376C177.306 103.5 178.17 111.263 178.458 118.45L174.14 117.875Z" fill="#FF7B00"/>
<path d="M173.564 116.725C171.837 113.85 168.095 105.8 169.535 95.4499C170.974 81.6499 176.155 82.2249 179.321 67.5624C182.775 52.6124 181.624 50.0249 181.911 43.4125C181.911 41.6875 182.487 39.1 183.351 36.5125C183.351 39.3875 183.351 42.8375 183.926 46.8624C185.653 65.2624 174.716 79.9249 174.716 96.5999C174.716 102.062 175.867 110.112 175.867 117.012L173.564 116.725Z" fill="#FFA200"/>
<path d="M128.662 126.788L140.175 139.438L125.208 155.25L131.253 171.35L153.128 178.825L161.763 189.75L146.796 570.688H187.092H187.668H228.253L213.285 189.75L221.632 178.825L243.508 171.35L249.552 155.25L234.585 139.438L246.386 126.788L187.38 102.925L128.662 126.788Z" fill="#F2E9E4"/>
<path d="M221.633 178.825L243.508 171.35L248.114 158.7L230.268 152.088L183.927 141.738L177.019 144.325L185.941 164.163L221.633 178.825Z" fill="#C7C0BB"/>
<path d="M131.253 171.35L153.128 178.825L161.763 189.75L146.796 570.688H185.941V146.625L131.253 171.35Z" fill="#C7C0BB"/>
<path d="M151.688 178.25L153.128 178.825L161.763 189.75L185.941 182.275V158.987L174.715 158.7L151.688 178.25Z" fill="#B8ABB6"/>
<path d="M131.253 171.35L153.128 178.825L185.941 164.163V146.625L131.253 171.35Z" fill="#9A8C98"/>
<path d="M125.208 155.25L131.253 171.35L185.941 146.625L243.508 171.35L249.552 155.25L186.517 130.812L125.208 155.25Z" fill="#F2E9E4"/>
<path d="M125.208 155.25L131.253 171.35L132.404 157.262L181.911 136.562L185.941 146.625L192.273 136.85L244.371 157.55L243.508 171.35L249.552 155.25L186.517 130.812L125.208 155.25Z" fill="#C7C0BB"/>
<path d="M125.208 155.25L131.253 171.35L185.941 146.625L186.229 146.913L186.517 130.812L125.208 155.25Z" fill="#C7C0BB"/>
<path d="M125.208 155.25L131.253 171.35L132.404 157.262L181.911 136.562L185.941 146.625L186.229 146.337L186.517 130.812L125.208 155.25Z" fill="#9A8C98"/>
<path d="M140.175 139.437L125.208 155.25L141.615 141.45L182.775 123.337L186.517 130.812L189.107 124.2L232.57 141.45L248.689 154.962L248.977 154.675L234.585 139.437L185.941 119.6L140.175 139.437Z" fill="#C7C0BB"/>
<path d="M140.175 139.437L125.208 155.25L186.517 130.812L185.941 119.6L140.175 139.437Z" fill="#F2E9E4"/>
<path d="M140.175 139.437L125.208 155.25L141.615 141.45L182.775 123.337L186.517 130.812L185.941 119.6L140.175 139.437Z" fill="#C7C0BB"/>
<path d="M128.662 126.788L140.175 139.438L185.941 119.6L234.585 139.438L246.386 126.788L187.38 102.925L128.662 126.788Z" fill="#C7C0BB"/>
<path d="M128.662 126.788L140.175 139.438L185.941 119.6L234.585 139.438L246.386 126.788L233.721 135.413L191.122 115.863L187.38 102.925L182.775 116.15L142.19 133.4L128.662 126.788Z" fill="#9A8C98"/>
<path d="M128.662 126.788L140.175 139.438L185.941 119.6L187.38 102.925L128.662 126.788Z" fill="#C7C0BB"/>
<path d="M128.662 126.788L140.175 139.438L185.941 119.6L187.38 102.925L182.775 116.15L142.19 133.4L128.662 126.788Z" fill="#9A8C98"/>
<path d="M176.155 562.637L28.2081 581.325L23.8906 586.787L30.5108 597.137C30.5108 597.137 67.0657 590.237 112.543 642.85L187.092 648.6L271.14 643.712C271.14 643.712 277.472 620.712 338.493 598L354.324 597.425L364.11 585.35L357.49 578.162L176.155 562.637Z" fill="#4A4E69"/>
<path d="M176.155 562.637L28.2081 581.325L23.8906 586.787L30.5108 597.137C30.5108 597.137 44.039 594.55 65.0509 604.612L61.309 599.725L172.701 591.1L186.517 643.425L184.214 590.525L324.677 598.287L305.392 612.95C314.027 608.062 324.965 603.175 338.493 598L354.324 597.425L364.11 585.35L357.49 578.162L176.155 562.637Z" fill="#2F3247"/>
<path d="M176.155 562.637L28.2081 581.325L23.8906 586.787L30.5108 597.137C30.5108 597.137 67.0657 590.237 112.543 642.85L187.092 648.6L177.018 584.487L176.443 572.125L176.155 562.637Z" fill="#4A4E69"/>
<path d="M176.155 562.637L28.2081 581.325L23.8906 586.787L30.5108 597.137C30.5108 597.137 44.039 594.55 65.0509 604.612L61.309 599.725L172.701 591.1L186.517 643.425L177.018 584.487L176.443 572.125L176.155 562.637Z" fill="#2F3247"/>
<path d="M176.155 562.637L28.2081 581.325L23.8906 586.787L30.5108 597.137C30.5108 597.137 31.6621 596.85 33.9648 596.85L177.018 584.487L354.324 597.425L364.11 585.35L357.49 578.162L176.155 562.637Z" fill="#9A8C98"/>
<path d="M176.155 562.637L28.2081 581.325L23.8906 586.787L30.5108 597.137C30.5108 597.137 31.6621 596.85 33.9648 596.85L177.018 584.487L176.443 572.125L176.155 562.637Z" fill="#9A8C98"/>
<path d="M176.155 562.637L28.2081 581.325L23.8906 586.787L176.443 572.125L364.11 585.35L357.49 578.162L176.155 562.637Z" fill="#F2E9E4"/>
<path d="M176.155 562.637L28.2081 581.325L23.8906 586.787L176.443 572.125L176.155 562.637Z" fill="#D6CFCB"/>
</g>
<defs>
<clipPath id="clip0_465_224">
<rect width="388" height="690" fill="white"/>
</clipPath>
</defs>
</svg>
