<?xml version="1.0" encoding="UTF-8"?>
<svg id="Layer_2" data-name="Layer 2" xmlns="http://www.w3.org/2000/svg" viewBox="0 0 402.88 103.92">
  <defs>
    <style>
      .cls-1 {
        fill: #0c2a6f;
      }

      .cls-2 {
        fill: #487fff;
      }
    </style>
  </defs>
  <g id="content">
    <g>
      <rect class="cls-2" x="25.63" y="44.01" width="18.39" height="18.39" rx="9.2" ry="9.2"/>
      <path class="cls-2" d="m37.25,19.74v6.15c0,1.27.52,1.81,1.2,1.91,11.34,1.56,20.33,10.55,21.89,21.89.09.68.65,1.2,1.34,1.2h6.7c.73,0,1.32-.64,1.24-1.36-1.72-16.32-14.7-29.3-31.02-31.02-.72-.08-1.36.5-1.36,1.23Z"/>
      <path class="cls-1" d="m34.93,78.88h-16.58c-1.34,0-2.62.58-3.5,1.59l-5.58,6.42v-33.68c0-12.96,9.66-23.69,22.15-25.41.68-.09,1.2-.65,1.2-1.34v-6.71c0-.72-.64-1.32-1.36-1.24C13.72,20.36,0,35.19,0,53.21v46.08c0,1.93,1.2,3.66,3.01,4.34.53.2,1.08.29,1.62.29,1.32,0,2.6-.56,3.5-1.59l12.33-14.18h14.47c18.02,0,32.86-13.72,34.7-31.26.08-.72-.52-1.36-1.24-1.36h-6.71c-.69,0-1.24.52-1.34,1.2-1.72,12.49-12.45,22.15-25.42,22.15Z"/>
      <path class="cls-1" d="m18.5,53.21v11.8c0,2.56,2.07,4.63,4.63,4.63h11.8c9.06,0,16.44-7.37,16.44-16.43s-7.37-16.43-16.44-16.43-16.43,7.37-16.43,16.43Zm16.43-7.16c3.95,0,7.17,3.21,7.17,7.16s-3.22,7.16-7.17,7.16-7.16-3.21-7.16-7.16,3.21-7.16,7.16-7.16Z"/>
      <path class="cls-2" d="m37.25,1.23v6.14c0,1.29.55,1.85,1.27,1.91,21.47,1.74,38.61,18.88,40.35,40.34.06.71.63,1.27,1.35,1.27h6.69c.71,0,1.29-.61,1.25-1.32C86.34,23.03,65.11,1.81,38.58,0c-.71-.05-1.32.52-1.32,1.23Z"/>
      <g>
        <g>
          <path class="cls-1" d="m126.27,28.02c0-1.93-.27-3.37-.8-4.3-.53-.93-1.59-1.39-3.19-1.39h-.57v-1.71h15.65c3.91,0,7.44.77,10.61,2.3,3.17,1.54,4.75,4.58,4.75,9.13,0,2.96-.82,5.25-2.47,6.88-1.65,1.63-3.5,2.71-5.55,3.24-2.05.53-3.93.8-5.63.8h-5.4v15.19h-7.4v-30.15Zm10.81,12.69c2.24,0,4.08-.68,5.52-2.05,1.44-1.37,2.16-3.66,2.16-6.88s-.71-5.46-2.13-6.83-3.18-2.05-5.26-2.05c-1.1,0-1.95.08-2.56.23l-1.14.17v17.41h3.41Z"/>
          <path class="cls-1" d="m159.1,28.02c0-1.93-.27-3.37-.8-4.3-.53-.93-1.59-1.39-3.19-1.39h-.57v-1.71h25.09c3.22,0,4.84,1.52,4.84,4.55v4.84h-1.71c0-2.35-.6-4.08-1.79-5.18-1.19-1.1-2.97-1.65-5.32-1.65h-9.16v14.22h14.79v2.56h-14.79v15.65h9.73c2.16,0,3.96-.48,5.4-1.45,1.44-.97,2.64-2.65,3.58-5.04l1.54.57-1.65,4.49c-.49,1.37-1.08,2.37-1.76,3.02-.68.65-1.75.97-3.19.97h-21.05v-30.15Z"/>
          <path class="cls-1" d="m214,56.89c-1.71-1.23-3.49-3.37-5.35-6.4l-5.69-9.5h-2.28v17.18h-7.45v-30.15c0-1.93-.27-3.37-.8-4.3-.53-.93-1.59-1.39-3.19-1.39h-.57v-1.71h15.7c3.94,0,7.49.72,10.64,2.16,3.15,1.44,4.72,4.21,4.72,8.31,0,4.74-3.07,7.89-9.22,9.44l5.97,9.96c2.24,3.76,4.59,5.84,7.05,6.26v1.42c-.3.15-.85.28-1.65.4-.8.11-1.54.17-2.22.17-2.09,0-3.98-.62-5.69-1.85Zm-9.9-18.18c2.12,0,3.93-.63,5.43-1.91,1.5-1.27,2.25-3.27,2.25-6s-.74-4.68-2.22-5.97c-1.48-1.29-3.21-1.93-5.18-1.93-1.1,0-1.95.08-2.56.23l-1.14.17v15.42h3.41Z"/>
          <path class="cls-1" d="m229.36,57.52c-.72-.44-1.23-1.18-1.54-2.22-.3-1.04-.46-2.55-.46-4.52v-30.15h7.4v30.15c0,1.93.27,3.37.8,4.3.53.93,1.59,1.39,3.19,1.39h.57v1.71h-6.83c-1.37,0-2.41-.22-3.13-.65Z"/>
          <path class="cls-1" d="m241.93,56.35l21.16-33.23h-12.35c-2.12,0-3.75.54-4.86,1.62-1.12,1.08-1.68,2.84-1.68,5.26h-1.71v-4.84c0-3.03,1.61-4.55,4.84-4.55h25.89l-22.3,34.99h22.02v2.56h-31.01v-1.82Z"/>
          <path class="cls-1" d="m280.73,57.52c-.72-.44-1.23-1.18-1.54-2.22-.3-1.04-.46-2.55-.46-4.52v-30.15h7.4v30.15c0,1.93.27,3.37.8,4.3.53.93,1.59,1.39,3.19,1.39h.57v1.71h-6.83c-1.37,0-2.41-.22-3.13-.65Z"/>
          <path class="cls-1" d="m299.96,30.01v28.16h-2.84v-30.72c0-1.59-.39-2.84-1.17-3.76-.78-.91-2.1-1.37-3.95-1.37h-.28v-1.71h3.98c2.12,0,3.86.28,5.21.83,1.35.55,2.47,1.41,3.39,2.59l19.57,22.76v-26.17h2.84v37.72h-2.62l-24.12-28.33Z"/>
          <path class="cls-1" d="m360.16,56.89c-1.93-1-3.51-2.97-4.72-5.89l-1.31-3.19h-15.13l-4.67,10.35h-2.96l16.78-37.55h2.56l12.74,30.38c1.44,3.53,3.41,5.42,5.92,5.69v1.42c-.68.19-1.59.28-2.73.28-2.39,0-4.55-.5-6.49-1.51Zm-19.97-11.63h12.86l-6.26-14.85-6.6,14.85Z"/>
          <path class="cls-1" d="m376.14,30.01v28.16h-2.84v-30.72c0-1.59-.39-2.84-1.17-3.76-.78-.91-2.1-1.37-3.95-1.37h-.28v-1.71h3.98c2.12,0,3.86.28,5.21.83,1.35.55,2.47,1.41,3.39,2.59l19.57,22.76v-26.17h2.84v37.72h-2.62l-24.12-28.33Z"/>
        </g>
        <g>
          <path class="cls-1" d="m129.38,77.47c0-1.38-.19-2.39-.57-3.05-.38-.66-1.13-.99-2.27-.99h-.81v-.81h3.64c1,0,1.75.13,2.25.38.5.26.86.72,1.07,1.4.22.67.32,1.7.32,3.07v20.23h14.36v1.62h-18v-21.84Z"/>
          <path class="cls-1" d="m152.1,98.93c-.5-.26-.86-.72-1.07-1.4-.22-.67-.32-1.7-.32-3.07v-21.84h3.64v21.84c0,1.38.19,2.39.57,3.05.38.66,1.13.99,2.27.99h.81v.81h-3.64c-1,0-1.75-.13-2.25-.38Z"/>
          <path class="cls-1" d="m164.7,78.08v21.24h-1.62v-21.84c0-1.29-.28-2.29-.83-2.99-.55-.7-1.49-1.05-2.81-1.05h-.4v-.81h2.63c1.24,0,2.29.2,3.16.61.86.4,1.63,1.01,2.31,1.82l14.16,17.6v-20.02h1.62v27.1h-.81l-17.39-21.64Z"/>
          <path class="cls-1" d="m194.78,98.19c-2.09-1.29-3.72-3.05-4.89-5.28-1.17-2.22-1.76-4.67-1.76-7.34s.51-4.89,1.54-6.98c1.02-2.09,2.49-3.74,4.39-4.96,1.9-1.21,4.11-1.82,6.61-1.82,2.32,0,4.32.3,6.01.91,1.69.61,2.92,1.38,3.7,2.33.43.54.71,1.25.83,2.14s.18,2,.18,3.32h-.81c-.51-2.37-1.48-4.15-2.91-5.32-1.43-1.17-3.36-1.76-5.78-1.76-2.18,0-4,.57-5.46,1.72-1.46,1.15-2.53,2.64-3.22,4.47-.69,1.83-1.03,3.82-1.03,5.95,0,4.56.89,7.85,2.67,9.89,1.78,2.04,4.13,3.05,7.04,3.05,1.38,0,2.55-.12,3.52-.36.97-.24,1.89-.59,2.75-1.05v-7.04c0-.92.15-1.71.44-2.39.3-.67.94-1.23,1.92-1.68.98-.44,2.42-.67,4.31-.67v.81c-1.21,0-2.02.31-2.43.93-.4.62-.61,1.59-.61,2.91v7.61c-1.46.89-2.98,1.54-4.57,1.94-1.59.4-3.37.61-5.34.61-2.64,0-5.01-.65-7.1-1.94Z"/>
          <path class="cls-1" d="m236.62,98.69c-1.38-.69-2.95-1.96-4.73-3.82l-8.5-8.9v13.35h-3.64v-21.84c0-1.38-.19-2.39-.57-3.05-.38-.66-1.13-.99-2.27-.99h-.81v-.81h3.64c1,0,1.75.13,2.25.38.5.26.86.72,1.07,1.4.22.67.32,1.7.32,3.07v7.89l8.5-8.49.81-.85c.75-.78,1.39-1.4,1.9-1.84.51-.45,1.12-.82,1.82-1.11.7-.3,1.48-.45,2.35-.45h2.02v1.01c-1.13,0-2.12.2-2.95.59-.84.39-1.81,1.14-2.91,2.25l-7.89,7.89,9.3,9.71c1.19,1.21,2.39,2.23,3.6,3.05,1.21.82,2.31,1.3,3.28,1.44v.77c-.81.27-1.69.4-2.63.4-1.27,0-2.59-.34-3.96-1.03Z"/>
          <path class="cls-1" d="m251.02,98.41c-1.51-.88-2.58-2.18-3.22-3.9-.63-1.73-.95-3.96-.95-6.71v-10.32c0-1.38-.19-2.39-.57-3.05-.38-.66-1.13-.99-2.27-.99h-.81v-.81h3.64c1,0,1.75.13,2.25.38.5.26.86.72,1.07,1.4.22.67.32,1.7.32,3.07v11.53c0,2.99.55,5.26,1.66,6.8,1.11,1.54,2.94,2.31,5.5,2.31,2.05,0,3.67-.36,4.87-1.09,1.2-.73,2.06-1.83,2.57-3.32.51-1.48.77-3.45.77-5.91v-15.17h1.62v15.17c0,2.81-.3,5.06-.89,6.78-.59,1.71-1.64,3-3.14,3.86-1.5.86-3.59,1.29-6.29,1.29s-4.64-.44-6.15-1.31Z"/>
          <path class="cls-1" d="m276.71,78.08v21.24h-1.62v-21.84c0-1.29-.28-2.29-.83-2.99-.55-.7-1.49-1.05-2.81-1.05h-.4v-.81h2.63c1.24,0,2.29.2,3.16.61.86.4,1.63,1.01,2.31,1.82l14.16,17.6v-20.02h1.62v27.1h-.81l-17.39-21.64Z"/>
          <path class="cls-1" d="m306.79,98.19c-2.09-1.29-3.72-3.05-4.89-5.28-1.17-2.22-1.76-4.67-1.76-7.34s.51-4.89,1.54-6.98c1.02-2.09,2.49-3.74,4.39-4.96,1.9-1.21,4.11-1.82,6.61-1.82,2.32,0,4.32.3,6.01.91,1.69.61,2.92,1.38,3.7,2.33.43.54.71,1.25.83,2.14s.18,2,.18,3.32h-.81c-.51-2.37-1.48-4.15-2.91-5.32-1.43-1.17-3.36-1.76-5.78-1.76-2.18,0-4,.57-5.46,1.72-1.46,1.15-2.53,2.64-3.22,4.47-.69,1.83-1.03,3.82-1.03,5.95,0,4.56.89,7.85,2.67,9.89,1.78,2.04,4.13,3.05,7.04,3.05,1.38,0,2.55-.12,3.52-.36.97-.24,1.89-.59,2.75-1.05v-7.04c0-.92.15-1.71.44-2.39.3-.67.94-1.23,1.92-1.68.98-.44,2.42-.67,4.31-.67v.81c-1.21,0-2.02.31-2.43.93-.4.62-.61,1.59-.61,2.91v7.61c-1.46.89-2.98,1.54-4.57,1.94-1.59.4-3.37.61-5.34.61-2.64,0-5.01-.65-7.1-1.94Z"/>
          <path class="cls-1" d="m348.35,98.45c-1.27-.71-2.28-2.11-3.03-4.19l-1.01-2.63h-11.33l-3.24,7.69h-1.82l11.33-26.7h1.21l8.9,21.64c.67,1.56,1.31,2.64,1.9,3.22.59.58,1.44.92,2.55,1.03v.81c-.49.13-1.03.2-1.62.2-1.29,0-2.58-.36-3.84-1.07Zm-14.77-8.43h9.91l-4.85-11.73-5.06,11.73Z"/>
          <path class="cls-1" d="m358.79,78.08v21.24h-1.62v-21.84c0-1.29-.28-2.29-.83-2.99-.55-.7-1.49-1.05-2.81-1.05h-.4v-.81h2.63c1.24,0,2.29.2,3.16.61.86.4,1.63,1.01,2.31,1.82l14.16,17.6v-20.02h1.62v27.1h-.81l-17.39-21.64Z"/>
        </g>
      </g>
    </g>
  </g>
</svg>