<?xml version="1.0" encoding="UTF-8"?>
<svg id="Layer_2" data-name="Layer 2" xmlns="http://www.w3.org/2000/svg" viewBox="0 0 396.42 467.35">
  <defs>
    <style>
      .cls-1 {
        fill: #fff;
      }

      .cls-2 {
        fill: #487fff;
      }
    </style>
  </defs>
  <g id="Layer_1-2" data-name="Layer 1">
    <g>
      <rect class="cls-2" x="115.24" y="197.93" width="82.72" height="82.72" rx="41.36" ry="41.36"/>
      <path class="cls-2" d="m167.53,88.77v27.67c0,5.69,2.33,8.15,5.41,8.58,51,7.03,91.43,47.46,98.46,98.44.42,3.08,2.93,5.41,6.04,5.41h30.14c3.26,0,5.94-2.88,5.59-6.13-7.74-73.4-66.11-131.77-139.52-139.5-3.25-.34-6.13,2.26-6.13,5.52Z"/>
      <path class="cls-1" d="m157.11,354.72h-74.57c-6.04,0-11.78,2.62-15.74,7.17l-25.11,28.88v-151.48c0-58.27,43.42-106.54,99.6-114.28,3.07-.42,5.4-2.92,5.4-6.02v-30.18c0-3.26-2.87-5.92-6.1-5.58C61.71,91.54,0,158.26,0,239.3v207.21c0,8.69,5.39,16.48,13.54,19.52,2.38.9,4.86,1.32,7.31,1.32,5.92,0,11.68-2.52,15.73-7.16l55.46-63.79h65.07c81.04,0,147.78-61.71,156.07-140.58.34-3.24-2.32-6.1-5.58-6.1h-30.18c-3.1,0-5.59,2.33-6.02,5.4-7.74,56.18-56.01,99.6-114.3,99.6Z"/>
      <path class="cls-1" d="m83.2,239.3v53.06c0,11.51,9.32,20.84,20.84,20.84h53.06c40.77,0,73.92-33.15,73.92-73.9s-33.15-73.9-73.92-73.9-73.9,33.15-73.9,73.9Zm73.9-32.22c17.77,0,32.24,14.45,32.24,32.22s-14.47,32.22-32.24,32.22-32.22-14.45-32.22-32.22,14.45-32.22,32.22-32.22Z"/>
      <path class="cls-2" d="m167.53,5.55v27.6c0,5.81,2.49,8.34,5.7,8.6,96.55,7.82,173.63,84.89,181.45,181.43.26,3.21,2.84,5.7,6.06,5.7h30.07c3.2,0,5.82-2.77,5.6-5.96C388.3,103.59,292.83,8.12,173.48.01c-3.19-.22-5.96,2.34-5.96,5.53Z"/>
    </g>
  </g>
</svg>