<?xml version="1.0" encoding="UTF-8"?>
<svg id="Layer_1" data-name="Layer 1" xmlns="http://www.w3.org/2000/svg" viewBox="0 0 1953.7 676.09">
  <defs>
    <style>
      .cls-1 {
        fill: #fff;
      }

      .cls-2 {
        fill: #487fff;
      }
    </style>
  </defs>
  <g>
    <rect class="cls-2" x="236.06" y="302.3" width="82.72" height="82.72" rx="41.36" ry="41.36"/>
    <path class="cls-2" d="m288.34,193.13v27.67c0,5.69,2.33,8.15,5.41,8.58,51,7.03,91.43,47.46,98.46,98.44.42,3.08,2.93,5.41,6.04,5.41h30.14c3.26,0,5.94-2.88,5.59-6.13-7.74-73.4-66.11-131.77-139.52-139.5-3.25-.34-6.13,2.26-6.13,5.52Z"/>
    <path class="cls-1" d="m277.92,459.09h-74.57c-6.04,0-11.78,2.62-15.74,7.17l-25.11,28.88v-151.48c0-58.27,43.42-106.54,99.6-114.28,3.07-.42,5.4-2.92,5.4-6.02v-30.18c0-3.26-2.87-5.92-6.1-5.58-78.87,8.3-140.58,75.02-140.58,156.05v207.21c0,8.69,5.39,16.48,13.54,19.52,2.38.9,4.86,1.32,7.31,1.32,5.92,0,11.68-2.52,15.73-7.16l55.46-63.79h65.07c81.04,0,147.78-61.71,156.07-140.58.34-3.24-2.32-6.1-5.58-6.1h-30.18c-3.1,0-5.59,2.33-6.02,5.4-7.74,56.18-56.01,99.6-114.3,99.6Z"/>
    <path class="cls-1" d="m204.02,343.67v53.06c0,11.51,9.32,20.84,20.84,20.84h53.06c40.77,0,73.92-33.15,73.92-73.9s-33.15-73.9-73.92-73.9-73.9,33.15-73.9,73.9Zm73.9-32.22c17.77,0,32.24,14.45,32.24,32.22s-14.47,32.22-32.24,32.22-32.22-14.45-32.22-32.22,14.45-32.22,32.22-32.22Z"/>
    <path class="cls-2" d="m288.34,109.91v27.6c0,5.81,2.49,8.34,5.7,8.6,96.55,7.82,173.63,84.89,181.45,181.43.26,3.21,2.84,5.7,6.06,5.7h30.07c3.2,0,5.82-2.77,5.6-5.96-8.11-119.33-103.58-214.8-222.93-222.91-3.19-.22-5.96,2.34-5.96,5.53Z"/>
  </g>
  <g>
    <g>
      <path class="cls-1" d="m688.67,230.37c0-8.7-1.2-15.14-3.58-19.32-2.39-4.18-7.16-6.27-14.33-6.27h-2.56v-7.68h70.36c17.57,0,33.47,3.45,47.72,10.36,14.24,6.91,21.36,20.6,21.36,41.07,0,13.3-3.71,23.63-11.13,30.96-7.42,7.34-15.74,12.2-24.95,14.58-9.21,2.39-17.65,3.58-25.33,3.58h-24.31v68.32h-33.26v-135.61Zm48.61,57.06c10.06,0,18.33-3.07,24.82-9.21,6.48-6.14,9.72-16.46,9.72-30.96s-3.2-24.56-9.59-30.7c-6.4-6.14-14.29-9.21-23.67-9.21-4.95,0-8.79.34-11.51,1.02l-5.12.77v78.29h15.35Z"/>
      <path class="cls-1" d="m836.31,230.37c0-8.7-1.2-15.14-3.58-19.32-2.39-4.18-7.16-6.27-14.33-6.27h-2.56v-7.68h112.84c14.5,0,21.75,6.82,21.75,20.47v21.75h-7.68c0-10.57-2.69-18.33-8.06-23.28-5.37-4.94-13.35-7.42-23.92-7.42h-41.19v63.97h66.52v11.51h-66.52v70.36h43.75c9.72,0,17.82-2.18,24.31-6.52,6.48-4.35,11.85-11.9,16.12-22.64l6.91,2.56-7.42,20.21c-2.22,6.14-4.86,10.66-7.93,13.56-3.07,2.9-7.85,4.35-14.33,4.35h-94.67v-135.61Z"/>
      <path class="cls-1" d="m1083.21,360.22c-7.68-5.54-15.7-15.14-24.05-28.78l-25.59-42.73h-10.23v77.27h-33.52v-135.61c0-8.7-1.2-15.14-3.58-19.32-2.39-4.18-7.16-6.27-14.33-6.27h-2.56v-7.68h70.62c17.74,0,33.69,3.24,47.85,9.72,14.16,6.49,21.24,18.94,21.24,37.36,0,21.32-13.82,35.48-41.45,42.47l26.87,44.78c10.06,16.89,20.64,26.27,31.73,28.15v6.4c-1.37.68-3.84,1.28-7.42,1.79-3.58.51-6.91.77-9.98.77-9.38,0-17.91-2.77-25.59-8.32Zm-44.52-81.75c9.55,0,17.69-2.85,24.43-8.57,6.74-5.71,10.11-14.71,10.11-26.99s-3.33-21.07-9.98-26.87c-6.65-5.8-14.42-8.7-23.28-8.7-4.95,0-8.79.34-11.51,1.02l-5.12.77v69.34h15.35Z"/>
      <path class="cls-1" d="m1152.3,363.03c-3.24-1.96-5.54-5.29-6.91-9.98-1.37-4.69-2.05-11.47-2.05-20.34v-135.61h33.26v135.61c0,8.7,1.19,15.14,3.58,19.32,2.39,4.18,7.16,6.27,14.33,6.27h2.56v7.68h-30.7c-6.14,0-10.83-.98-14.07-2.94Z"/>
      <path class="cls-1" d="m1208.84,357.79l95.18-149.42h-55.52c-9.55,0-16.85,2.43-21.88,7.29-5.03,4.86-7.55,12.75-7.55,23.67h-7.68v-21.75c0-13.65,7.25-20.47,21.75-20.47h116.42l-100.3,157.36h99.02v11.51h-139.45v-8.19Z"/>
      <path class="cls-1" d="m1383.34,363.03c-3.24-1.96-5.54-5.29-6.91-9.98-1.37-4.69-2.05-11.47-2.05-20.34v-135.61h33.26v135.61c0,8.7,1.19,15.14,3.58,19.32,2.39,4.18,7.16,6.27,14.33,6.27h2.56v7.68h-30.7c-6.14,0-10.83-.98-14.07-2.94Z"/>
      <path class="cls-1" d="m1469.82,239.32v126.65h-12.79v-138.17c0-7.16-1.75-12.79-5.25-16.89-3.5-4.09-9.43-6.14-17.78-6.14h-1.28v-7.68h17.91c9.55,0,17.35,1.24,23.41,3.71,6.05,2.47,11.13,6.36,15.22,11.64l88.02,102.35v-117.7h12.79v169.64h-11.77l-108.49-127.42Z"/>
      <path class="cls-1" d="m1740.52,360.22c-8.7-4.52-15.78-13.35-21.24-26.48l-5.89-14.33h-68.06l-20.98,46.57h-13.3l75.48-168.87h11.51l57.31,136.63c6.48,15.86,15.35,24.4,26.61,25.59v6.4c-3.07.85-7.16,1.28-12.28,1.28-10.75,0-20.47-2.26-29.17-6.78Zm-89.81-52.32h57.83l-28.15-66.78-29.68,66.78Z"/>
      <path class="cls-1" d="m1812.41,239.32v126.65h-12.79v-138.17c0-7.16-1.75-12.79-5.25-16.89-3.5-4.09-9.43-6.14-17.78-6.14h-1.28v-7.68h17.91c9.55,0,17.35,1.24,23.41,3.71,6.05,2.47,11.13,6.36,15.22,11.64l88.02,102.35v-117.7h12.79v169.64h-11.77l-108.49-127.42Z"/>
    </g>
    <g>
      <path class="cls-1" d="m702.68,452.78c0-6.19-.85-10.76-2.55-13.73-1.7-2.97-5.09-4.46-10.19-4.46h-3.64v-3.64h16.37c4.49,0,7.85.58,10.1,1.73,2.24,1.16,3.85,3.25,4.82,6.28.97,3.03,1.46,7.64,1.46,13.83v90.96h64.58v7.28h-80.96v-98.24Z"/>
      <path class="cls-1" d="m804.84,549.29c-2.25-1.15-3.85-3.24-4.82-6.28-.97-3.03-1.45-7.64-1.45-13.83v-98.24h16.37v98.24c0,6.19.85,10.76,2.55,13.74,1.7,2.97,5.09,4.46,10.19,4.46h3.64v3.64h-16.37c-4.49,0-7.85-.57-10.1-1.73Z"/>
      <path class="cls-1" d="m861.5,455.51v95.51h-7.28v-98.24c0-5.82-1.24-10.31-3.73-13.46-2.49-3.15-6.7-4.73-12.64-4.73h-1.82v-3.64h11.83c5.58,0,10.31.91,14.19,2.73,3.88,1.82,7.34,4.55,10.37,8.19l63.67,79.14v-90.05h7.28v121.89h-3.64l-78.23-97.33Z"/>
      <path class="cls-1" d="m996.77,545.93c-9.4-5.82-16.74-13.73-22.01-23.74-5.28-10.01-7.91-21.01-7.91-33.02s2.3-21.98,6.91-31.38c4.61-9.4,11.19-16.83,19.74-22.29,8.55-5.46,18.46-8.19,29.74-8.19,10.43,0,19.43,1.36,27.02,4.09,7.58,2.73,13.13,6.22,16.65,10.46,1.94,2.43,3.18,5.64,3.73,9.64s.82,8.98.82,14.92h-3.64c-2.31-10.67-6.67-18.65-13.1-23.92-6.43-5.28-15.1-7.91-26.02-7.91-9.82,0-18.01,2.58-24.56,7.73-6.55,5.16-11.37,11.86-14.46,20.1-3.09,8.25-4.64,17.16-4.64,26.74,0,20.5,4,35.32,12.01,44.48,8,9.16,18.56,13.74,31.65,13.74,6.19,0,11.46-.55,15.83-1.64,4.37-1.09,8.49-2.67,12.37-4.73v-31.66c0-4.12.67-7.7,2-10.73,1.33-3.03,4.21-5.55,8.64-7.55,4.43-2,10.88-3,19.38-3v3.64c-5.46,0-9.1,1.4-10.92,4.18-1.82,2.79-2.73,7.16-2.73,13.1v34.2c-6.55,4-13.4,6.91-20.56,8.73-7.16,1.82-15.16,2.73-24.01,2.73-11.89,0-22.53-2.91-31.93-8.73Z"/>
      <path class="cls-1" d="m1184.97,548.2c-6.19-3.09-13.28-8.82-21.29-17.19l-38.2-40.02v60.03h-16.37v-98.24c0-6.19-.85-10.76-2.55-13.73-1.7-2.97-5.09-4.46-10.19-4.46h-3.64v-3.64h16.37c4.49,0,7.85.58,10.1,1.73,2.24,1.16,3.85,3.25,4.82,6.28.97,3.03,1.46,7.64,1.46,13.83v35.48l38.2-38.2,3.64-3.82c3.39-3.51,6.25-6.28,8.55-8.28,2.3-2,5.03-3.67,8.19-5,3.15-1.33,6.67-2,10.55-2h9.1v4.55c-5.09,0-9.52.88-13.28,2.64-3.76,1.76-8.13,5.13-13.1,10.1l-35.48,35.48,41.84,43.66c5.34,5.46,10.73,10.04,16.19,13.74,5.46,3.7,10.37,5.85,14.74,6.46v3.46c-3.64,1.21-7.58,1.82-11.83,1.82-5.7,0-11.64-1.55-17.83-4.64Z"/>
      <path class="cls-1" d="m1249.73,546.93c-6.79-3.94-11.61-9.79-14.46-17.56-2.85-7.76-4.28-17.83-4.28-30.2v-46.39c0-6.19-.85-10.76-2.55-13.73-1.7-2.97-5.09-4.46-10.19-4.46h-3.64v-3.64h16.37c4.49,0,7.85.58,10.1,1.73,2.24,1.16,3.85,3.25,4.82,6.28.97,3.03,1.46,7.64,1.46,13.83v51.85c0,13.46,2.48,23.65,7.46,30.56,4.97,6.91,13.22,10.37,24.74,10.37,9.22,0,16.52-1.64,21.92-4.91,5.4-3.27,9.25-8.25,11.55-14.92,2.3-6.67,3.46-15.52,3.46-26.56v-68.22h7.28v68.22c0,12.61-1.34,22.77-4,30.47-2.67,7.7-7.37,13.49-14.1,17.37-6.73,3.88-16.16,5.82-28.29,5.82s-20.86-1.97-27.65-5.91Z"/>
      <path class="cls-1" d="m1365.25,455.51v95.51h-7.28v-98.24c0-5.82-1.24-10.31-3.73-13.46-2.49-3.15-6.7-4.73-12.64-4.73h-1.82v-3.64h11.83c5.58,0,10.31.91,14.19,2.73,3.88,1.82,7.34,4.55,10.37,8.19l63.67,79.14v-90.05h7.28v121.89h-3.64l-78.23-97.33Z"/>
      <path class="cls-1" d="m1500.51,545.93c-9.4-5.82-16.74-13.73-22.01-23.74-5.28-10.01-7.91-21.01-7.91-33.02s2.3-21.98,6.91-31.38c4.61-9.4,11.19-16.83,19.74-22.29,8.55-5.46,18.46-8.19,29.74-8.19,10.43,0,19.43,1.36,27.02,4.09,7.58,2.73,13.13,6.22,16.65,10.46,1.94,2.43,3.18,5.64,3.73,9.64s.82,8.98.82,14.92h-3.64c-2.31-10.67-6.67-18.65-13.1-23.92-6.43-5.28-15.1-7.91-26.02-7.91-9.82,0-18.01,2.58-24.56,7.73-6.55,5.16-11.37,11.86-14.46,20.1-3.09,8.25-4.64,17.16-4.64,26.74,0,20.5,4,35.32,12.01,44.48,8,9.16,18.56,13.74,31.65,13.74,6.19,0,11.46-.55,15.83-1.64,4.37-1.09,8.49-2.67,12.37-4.73v-31.66c0-4.12.67-7.7,2-10.73,1.33-3.03,4.21-5.55,8.64-7.55,4.43-2,10.88-3,19.38-3v3.64c-5.46,0-9.1,1.4-10.92,4.18-1.82,2.79-2.73,7.16-2.73,13.1v34.2c-6.55,4-13.4,6.91-20.56,8.73-7.16,1.82-15.16,2.73-24.01,2.73-11.89,0-22.53-2.91-31.93-8.73Z"/>
      <path class="cls-1" d="m1687.44,547.11c-5.7-3.21-10.25-9.49-13.64-18.83l-4.55-11.83h-50.94l-14.55,34.57h-8.19l50.94-120.07h5.46l40.02,97.33c3.03,7.04,5.88,11.86,8.55,14.46,2.67,2.61,6.49,4.16,11.46,4.64v3.64c-2.18.61-4.61.91-7.28.91-5.82,0-11.58-1.61-17.28-4.82Zm-66.4-37.93h44.57l-21.83-52.76-22.74,52.76Z"/>
      <path class="cls-1" d="m1734.38,455.51v95.51h-7.28v-98.24c0-5.82-1.24-10.31-3.73-13.46-2.49-3.15-6.7-4.73-12.64-4.73h-1.82v-3.64h11.83c5.58,0,10.31.91,14.19,2.73,3.88,1.82,7.34,4.55,10.37,8.19l63.67,79.14v-90.05h7.28v121.89h-3.64l-78.23-97.33Z"/>
    </g>
  </g>
</svg>